<?xml version="1.0" encoding="UTF-8" standalone="no"?>
<svg
   xmlns:dc="http://purl.org/dc/elements/1.1/"
   xmlns:cc="http://creativecommons.org/ns#"
   xmlns:rdf="http://www.w3.org/1999/02/22-rdf-syntax-ns#"
   xmlns:svg="http://www.w3.org/2000/svg"
   xmlns="http://www.w3.org/2000/svg"
   xmlns:sodipodi="http://sodipodi.sourceforge.net/DTD/sodipodi-0.dtd"
   xmlns:inkscape="http://www.inkscape.org/namespaces/inkscape"
   version="1.0"
   width="1024.000000pt"
   height="311.000000pt"
   viewBox="0 0 1024.000000 311.000000"
   preserveAspectRatio="xMidYMid meet"
   id="svg4136"
   inkscape:version="0.91 r13725"
   sodipodi:docname="New_logo_in_place_for_innovation_gym_logo_.svg">
  <defs
     id="defs4152" />
  <sodipodi:namedview
     pagecolor="#ffffff"
     bordercolor="#666666"
     borderopacity="1"
     objecttolerance="10"
     gridtolerance="10"
     guidetolerance="10"
     inkscape:pageopacity="0"
     inkscape:pageshadow="2"
     inkscape:window-width="1920"
     inkscape:window-height="1001"
     id="namedview4150"
     showgrid="false"
     inkscape:zoom="0.56953125"
     inkscape:cx="354.03187"
     inkscape:cy="152.69976"
     inkscape:window-x="-9"
     inkscape:window-y="-9"
     inkscape:window-maximized="1"
     inkscape:current-layer="svg4136" />
  <metadata
     id="metadata4138">
Created by potrace 1.13, written by Peter Selinger 2001-2015
<rdf:RDF>
  <cc:Work
     rdf:about="">
    <dc:format>image/svg+xml</dc:format>
    <dc:type
       rdf:resource="http://purl.org/dc/dcmitype/StillImage" />
    <dc:title />
  </cc:Work>
</rdf:RDF>
</metadata>
  <g
     transform="translate(0.000000,311.000000) scale(0.100000,-0.100000)"
     fill="#000000"
     stroke="none"
     id="g4140">
    <path
       d="M0 1555 l0 -1555 5120 0 5120 0 0 1555 0 1555 -5120 0 -5120 0 0 -1555z m818 769 c4 -29 39 -34 233 -34 187 0 217 4 221 34 3 20 8 21 108 21 100 0 105 -1 108 -22 2 -15 11 -23 30 -25 l27 -3 0 -105 0 -105 -27 -3 c-19 -2 -28 -10 -30 -25 -3 -21 -8 -22 -108 -22 -101 0 -105 1 -108 23 -2 14 -10 22 -22 22 -10 0 -22 5 -25 10 -3 6 -24 10 -46 10 l-39 0 0 -514 c0 -333 4 -517 10 -521 6 -3 10 -15 10 -25 0 -12 8 -20 23 -22 21 -3 22 -7 22 -108 0 -101 -1 -105 -22 -108 -14 -2 -23 -10 -23 -21 0 -34 -24 -42 -121 -39 -94 3 -94 3 -97 30 -3 21 -9 27 -30 30 -27 3 -27 3 -30 97 -3 98 5 121 39 121 12 0 19 7 19 19 0 11 4 23 10 26 6 4 10 188 10 521 l0 514 -39 0 c-22 0 -43 -4 -46 -10 -3 -5 -17 -10 -30 -10 -17 0 -25 -6 -27 -22 -3 -22 -8 -23 -105 -26 l-103 -3 0 25 c0 19 -6 25 -27 28 l-28 3 0 105 0 105 28 3 c21 3 27 9 27 28 l0 25 103 -3 c95 -3 102 -4 105 -24z m1050 -1 c2 -14 11 -23 25 -25 21 -3 22 -8 22 -108 0 -100 -1 -105 -22 -108 -35 -5 -43 -51 -43 -248 l0 -184 160 0 160 0 0 189 c0 116 -4 192 -10 196 -5 3 -10 15 -10 26 0 12 -7 19 -18 19 -34 0 -42 21 -42 110 0 88 8 110 41 110 11 0 19 9 21 23 3 21 7 22 108 22 100 0 105 -1 108 -22 2 -14 11 -23 25 -25 21 -3 22 -8 22 -108 0 -101 -1 -105 -22 -108 -15 -2 -23 -10 -23 -22 0 -10 -4 -22 -10 -25 -6 -4 -10 -177 -10 -485 0 -308 4 -481 10 -485 6 -3 10 -15 10 -25 0 -12 8 -20 23 -22 21 -3 22 -7 22 -108 0 -100 -1 -105 -22 -108 -15 -2 -23 -11 -25 -30 l-3 -27 -105 0 -105 0 -3 27 c-3 21 -9 27 -30 30 -27 3 -27 3 -30 97 -3 98 5 121 39 121 12 0 19 7 19 19 0 11 5 23 10 26 6 4 10 82 10 201 l0 194 -161 0 -160 0 3 -202 c2 -112 5 -210 8 -218 3 -8 16 -17 30 -20 25 -5 25 -6 25 -110 0 -98 -1 -105 -20 -108 -13 -2 -26 -15 -32 -33 l-12 -30 -98 3 -98 3 -3 27 c-3 21 -9 27 -30 30 l-27 3 0 105 0 105 28 3 c19 2 27 9 27 22 0 10 5 22 10 25 6 4 10 177 10 485 0 308 -4 481 -10 485 -5 3 -10 15 -10 25 0 13 -8 20 -27 22 l-28 3 0 105 0 105 28 3 c18 2 27 9 27 21 0 10 3 21 7 25 4 4 52 5 107 4 95 -3 101 -4 104 -25z m1500 0 c2 -14 11 -23 25 -25 21 -3 22 -8 22 -108 0 -100 -1 -105 -22 -108 -14 -2 -23 -11 -25 -25 -3 -21 -8 -22 -108 -22 -101 0 -105 1 -108 23 -2 16 -10 22 -27 22 -13 0 -27 5 -30 10 -4 6 -88 10 -221 10 l-214 0 0 -225 0 -225 134 0 c164 0 194 5 198 34 3 20 8 21 108 21 101 0 105 -1 108 -22 2 -14 10 -23 21 -23 33 0 41 -22 41 -110 0 -88 -8 -110 -41 -110 -12 0 -19 -9 -21 -27 l-3 -28 -94 -3 c-98 -3 -121 5 -121 39 0 12 -7 19 -19 19 -11 0 -23 5 -26 10 -4 6 -63 10 -146 10 l-139 0 2 -227 3 -228 217 -2 c129 -1 220 2 223 7 4 6 15 10 25 10 12 0 20 8 22 22 3 22 7 23 108 23 100 0 105 -1 108 -22 2 -14 11 -23 25 -25 21 -3 22 -8 22 -108 0 -101 -1 -105 -22 -108 -14 -2 -23 -10 -23 -21 0 -34 -24 -42 -121 -39 l-94 3 -3 28 c-2 15 -4 28 -5 29 -1 1 -153 4 -337 7 l-335 6 0 735 0 735 335 6 c184 3 336 6 338 7 1 1 2 10 2 20 0 10 3 22 7 26 4 4 52 5 107 4 95 -3 101 -4 104 -25z m750 0 c2 -13 4 -24 5 -24 1 -1 72 -4 157 -8 l155 -6 3 -82 3 -82 52 -3 52 -3 3 -107 3 -107 52 -3 52 -3 0 -340 0 -340 -52 -3 -52 -3 -3 -107 -3 -107 -52 -3 -52 -3 -3 -107 -3 -107 -255 0 -255 0 -3 425 c-1 263 -6 428 -12 434 -6 6 -10 18 -10 27 0 11 -9 19 -22 21 -22 3 -23 7 -23 108 0 100 1 105 22 108 14 2 23 11 25 25 3 21 8 22 108 22 100 0 105 -1 108 -22 2 -14 11 -23 25 -25 21 -3 22 -8 22 -108 0 -101 -1 -105 -22 -108 -17 -2 -23 -10 -23 -27 0 -13 -4 -27 -10 -30 -6 -4 -10 -120 -10 -316 l0 -309 105 1 104 1 3 111 3 112 53 3 52 3 0 324 0 324 -52 3 -53 3 -3 108 -3 107 -69 0 c-38 0 -72 -4 -75 -10 -3 -5 -15 -10 -25 -10 -12 0 -20 -8 -22 -22 -3 -22 -7 -23 -108 -23 -100 0 -105 1 -108 22 -2 14 -11 23 -25 25 -21 3 -22 8 -22 108 0 101 1 105 23 108 13 2 22 10 22 21 0 10 3 21 7 25 4 4 52 5 107 4 96 -3 101 -4 104 -25z m910 0 c2 -15 11 -23 30 -25 l27 -3 0 -105 0 -105 -27 -3 c-20 -2 -28 -9 -28 -22 0 -10 -4 -22 -10 -25 -14 -8 -14 -962 0 -970 6 -3 10 -15 10 -25 0 -13 8 -20 28 -22 l27 -3 0 -105 0 -105 -27 -3 c-21 -3 -27 -9 -30 -30 l-3 -27 -100 0 -100 0 -3 27 c-3 21 -9 27 -30 30 l-27 3 0 105 0 105 26 3 c21 2 28 10 33 34 8 40 8 942 0 990 -5 31 -11 37 -33 40 l-26 3 0 105 0 105 28 3 c18 2 27 9 27 21 0 29 10 32 110 29 89 -3 95 -4 98 -25z m900 0 c2 -14 11 -23 25 -25 21 -3 22 -8 22 -108 0 -100 -1 -105 -22 -108 -14 -2 -23 -11 -25 -25 -3 -21 -8 -22 -108 -22 -99 0 -105 1 -108 21 -3 24 -40 34 -124 34 l-47 0 -3 -102 -3 -103 -52 -3 -53 -3 0 -324 0 -324 53 -3 52 -3 5 -110 5 -110 95 0 95 0 3 210 2 210 -107 0 c-104 0 -108 1 -111 23 -2 13 -10 22 -21 22 -34 0 -42 24 -39 121 3 94 3 94 30 97 21 3 27 9 30 30 3 27 3 27 97 30 98 3 121 -5 121 -39 0 -12 7 -19 18 -19 10 0 22 -4 28 -9 5 -6 38 -11 74 -13 l65 -3 0 -445 0 -445 -255 0 -255 0 -3 107 -3 107 -52 3 -52 3 -3 107 -3 107 -52 3 -52 3 0 340 0 340 52 3 52 3 3 107 3 107 52 3 52 3 3 82 3 82 140 6 c170 8 155 5 155 27 0 10 3 22 7 26 4 4 52 5 107 4 95 -3 101 -4 104 -25z m710 0 c2 -13 4 -24 5 -25 1 -1 128 -4 282 -7 l280 -6 0 -95 0 -95 -52 -3 -52 -3 -3 -102 -3 -102 -52 -3 -53 -3 0 -104 0 -104 53 -3 52 -3 3 -107 3 -107 52 -3 52 -3 0 -225 0 -225 -52 -3 -52 -3 -3 -107 -3 -107 -285 0 -285 0 -3 103 -3 102 -42 0 c-46 0 -67 13 -67 41 0 9 -9 19 -20 22 -19 5 -21 12 -18 109 3 97 4 103 25 106 14 2 23 11 25 25 3 21 8 22 108 22 101 0 105 -1 108 -22 2 -14 10 -23 21 -23 34 0 42 -24 39 -117 -3 -80 -5 -89 -25 -98 -13 -5 -23 -17 -23 -27 0 -15 17 -16 160 -17 l160 -2 0 218 0 218 -163 0 -162 0 0 115 0 115 52 3 52 3 3 112 3 112 53 3 52 3 0 95 0 94 -79 0 c-108 0 -139 -7 -143 -34 -3 -20 -8 -21 -108 -21 -100 0 -105 1 -108 22 -2 14 -11 23 -25 25 -21 3 -22 8 -22 108 0 101 1 105 23 108 13 2 22 10 22 21 0 10 3 21 7 25 4 4 52 5 107 4 96 -3 101 -4 104 -25z m1180 -95 l3 -107 52 -3 52 -3 3 -107 3 -107 52 -3 52 -3 0 -340 0 -340 -52 -3 -52 -3 -3 -107 -3 -107 -52 -3 -52 -3 -3 -107 -3 -107 -172 -3 -173 -2 0 97 c0 54 -4 103 -8 110 -4 6 -30 13 -57 15 l-50 3 -3 107 -3 107 -52 3 -52 3 0 340 0 340 52 3 52 3 3 107 3 107 55 5 55 5 3 108 3 107 172 -2 172 -3 3 -107z m830 0 l3 -107 52 -3 52 -3 3 -107 3 -107 52 -3 52 -3 0 -340 0 -340 -52 -3 -52 -3 -3 -107 -3 -107 -52 -3 -52 -3 -3 -107 -3 -107 -172 -3 -172 -2 -3 107 -3 108 -55 5 -55 5 -3 107 -3 107 -52 3 -52 3 0 340 0 340 52 3 52 3 3 107 3 107 55 5 55 5 3 108 3 107 172 -2 172 -3 3 -107z m830 0 l3 -107 52 -3 52 -3 3 -107 3 -107 52 -3 52 -3 0 -340 0 -340 -52 -3 -52 -3 -3 -107 -3 -107 -52 -3 -52 -3 -3 -107 -3 -107 -172 -3 -173 -2 0 97 c0 54 -4 103 -8 110 -4 6 -30 13 -57 15 l-50 3 -3 107 -3 107 -52 3 -52 3 0 340 0 340 52 3 52 3 3 107 3 107 58 3 57 3 0 110 0 109 173 -2 172 -3 3 -107z"
       id="path4142" />
    <path
       d="M7485 2088 c-3 -7 -4 -202 -3 -433 l3 -420 55 -5 55 -5 3 -107 3 -108 99 0 100 0 -2 433 -3 432 -52 3 -52 3 -3 107 -3 107 -98 3 c-72 2 -99 -1 -102 -10z"
       id="path4144" />
    <path
       d="M8315 2088 c-3 -7 -4 -202 -3 -433 l3 -420 55 -5 55 -5 3 -107 3 -108 99 0 100 0 -2 433 -3 432 -53 5 -53 5 -2 105 -2 105 -98 3 c-72 2 -99 -1 -102 -10z"
       id="path4146" />
    <path
       d="M9145 2087 c-3 -6 -4 -201 -3 -432 l3 -420 55 -5 55 -5 3 -107 3 -108 99 0 100 0 -2 433 -3 432 -52 3 c-32 2 -53 8 -54 15 0 7 0 48 1 92 2 118 5 115 -106 115 -67 0 -96 -4 -99 -13z"
       id="path4148" />
  </g>
  <path
     style="fill:#ffffff;stroke:#000000;stroke-width:1.75582993;stroke-opacity:0.95977017"
     d="m 118.59954,291.69679 c -0.48173,-1.84213 -2.38307,-3.74346 -4.2252,-4.22519 -2.87399,-0.75157 -3.34932,-2.54222 -3.34932,-12.61752 0,-10.0753 0.47533,-11.86596 3.34932,-12.61752 1.84213,-0.48173 3.80096,-2.5806 4.35296,-4.66415 0.55201,-2.08356 1.54023,-32.30634 2.19607,-67.16175 0.93151,-49.50654 0.71707,-63.66724 -0.98002,-64.7161 -2.95459,-1.82604 -17.24565,2.34934 -18.40793,5.3782 -1.37878,3.59303 -23.118829,3.41851 -24.506127,-0.19673 -0.555864,-1.44856 -2.220646,-2.63375 -3.699514,-2.63375 -2.171797,0 -2.688851,-2.4929 -2.688851,-12.96394 0,-11.48728 0.399996,-13.06854 3.51166,-13.88225 1.931413,-0.50508 3.51022,-1.97995 3.50846,-3.277492 -0.005,-3.65619 21.245023,-2.151444 24.220522,1.715095 1.94709,2.530167 6.01979,2.949057 28.67217,2.949057 23.11835,0 26.68241,-0.38223 28.65114,-3.072702 3.03016,-4.141027 24.64039,-4.503087 26.19995,-0.438958 0.55586,1.44856 2.22064,2.63375 3.69951,2.63375 2.17557,0 2.68885,2.51379 2.68885,13.16872 0,10.65493 -0.51328,13.16872 -2.68885,13.16872 -1.47887,0 -3.14365,1.18519 -3.69951,2.63375 -1.39826,3.6438 -24.39279,3.80142 -25.78371,0.17674 -1.15038,-2.99785 -12.64647,-7.01752 -16.18566,-5.6594 -2.87306,1.10249 -3.23238,34.52846 -1.07479,99.98336 1.0084,30.59163 1.51897,35.01038 4.2199,36.52072 2.46684,1.37944 3.0727,4.12447 3.0727,13.92179 0,9.21978 -0.59388,12.20357 -2.42896,12.20357 -1.33592,0 -2.8422,1.58024 -3.34728,3.51165 -0.80283,3.07004 -2.39498,3.51166 -12.65997,3.51166 -10.0753,0 -11.86596,-0.47533 -12.61752,-3.34933 z"
     id="path4137"
     inkscape:connector-curvature="0"
     transform="scale(0.8,0.8)" />
  <path
     style="fill:#ffffff;stroke:#000000;stroke-width:1.75582993;stroke-opacity:0.95977017"
     d="m 207.59566,292.248 c 0,-1.53897 -1.58025,-3.21136 -3.51166,-3.71644 -3.11166,-0.81372 -3.51166,-2.39499 -3.51166,-13.88226 0,-10.44648 0.51989,-12.96394 2.6772,-12.96394 5.26783,0 6.10195,-9.12062 6.10195,-66.72154 0,-57.60091 -0.83412,-66.72154 -6.10195,-66.72154 -2.16107,0 -2.6772,-2.53873 -2.6772,-13.16872 0,-10.65493 0.51328,-13.16872 2.68885,-13.16872 1.47887,0 3.14365,-1.18519 3.69952,-2.63375 0.75361,-1.963883 3.88694,-2.633744 12.31954,-2.633744 9.97384,0 11.81718,0.548465 15.61461,4.645964 5.99524,6.46897 6.19372,21.55281 0.35512,26.98854 -3.68185,3.42781 -3.99168,5.40344 -4.55421,29.0396 l -0.60359,25.36156 21.23459,0 21.2346,0 0,-19.41453 c 0,-20.72786 -2.51603,-35.0162 -6.166,-35.0162 -3.02438,0 -4.36898,-4.05282 -4.36898,-13.16872 0,-9.13341 1.3451,-13.16872 4.38957,-13.16872 1.24192,0 2.71284,-1.18519 3.2687,-2.63375 0.75562,-1.969117 3.90462,-2.633744 12.47866,-2.633744 15.85003,0 18.49133,2.758821 18.49133,19.314124 0,9.58446 -0.56242,12.29081 -2.55419,12.29081 -4.19301,0 -4.67583,8.39897 -4.1203,71.67493 0.48501,55.24249 0.78502,60.40516 3.60178,61.98025 4.16889,2.33119 4.54377,25.18513 0.43896,26.76031 -1.44856,0.55586 -2.63374,2.22063 -2.63374,3.69951 0,2.16187 -2.44102,2.68884 -12.45519,2.68884 -10.77731,0 -12.57318,-0.45119 -13.33106,-3.34933 -0.48173,-1.84213 -2.38307,-3.74346 -4.2252,-4.22519 -2.78417,-0.72807 -3.34932,-2.50887 -3.34932,-10.5537 0,-11.1187 1.18549,-15.23254 4.38957,-15.23254 3.92115,0 4.92904,-5.46939 5.74318,-31.16598 l 0.79273,-25.02058 -21.42625,0 -21.42625,0 0.6,26.2397 c 0.56139,24.55137 0.85419,26.47635 4.55061,29.91751 5.43762,5.06211 5.7142,21.37948 0.43896,25.89629 -1.93141,1.65372 -3.51166,4.01635 -3.51166,5.2503 0,1.60714 -3.48631,2.24352 -12.29081,2.24352 -10.07552,0 -12.29081,-0.50432 -12.29081,-2.79812 z"
     id="path4139"
     inkscape:connector-curvature="0"
     transform="scale(0.8,0.8)" />
  <path
     style="fill:#ffffff;stroke:#000000;stroke-width:1.75582993;stroke-opacity:0.95977017"
     d="m 394.67608,291.80081 c -0.89107,-2.80752 -3.69025,-3.39862 -20.74933,-4.38159 -10.84561,-0.62495 -29.79337,-1.13987 -42.10612,-1.14426 l -22.38684,-0.008 0,-91.0352 0,-91.0352 41.54883,-0.99874 c 35.3942,-0.85079 41.77935,-1.41066 43.10508,-3.779613 2.4782,-4.428299 23.1039,-3.884531 27.71921,0.730783 5.06678,5.06678 5.06678,24.78232 0,29.8491 -4.62357,4.62357 -23.90847,5.10344 -27.14627,0.67548 -2.4285,-3.32117 -21.22758,-5.70297 -46.15963,-5.8483 l -16.24143,-0.0947 0,28.9712 0,28.97119 20.1048,0 c 17.3218,0 20.34283,-0.42534 21.82437,-3.0727 1.3548,-2.4209 4.07365,-3.0727 12.81701,-3.0727 9.56537,0 11.76406,0.6338 15.92598,4.59091 4.14615,3.94212 4.82853,5.98052 4.82853,14.42382 0,8.03589 -0.64177,10.17637 -3.51166,11.71229 -1.93141,1.03366 -3.51166,2.93498 -3.51166,4.22515 0,2.70766 -15.22053,5.28254 -20.40718,3.45231 -1.81309,-0.63979 -4.63263,-2.82648 -6.26565,-4.85932 -2.63438,-3.27936 -5.15826,-3.76306 -22.38683,-4.29036 l -19.41771,-0.59431 0,29.12654 0,29.12655 28.9712,0 c 26.63008,0 29.25496,-0.28377 32.48285,-3.51166 2.73129,-2.7313 5.85277,-3.51166 14.04664,-3.51166 14.56834,0 17.5583,3.12405 17.5583,18.34575 0,9.47086 -0.67898,12.05505 -4.15196,15.80247 -3.57219,3.85445 -5.63969,4.48003 -14.80623,4.48003 -8.82075,0 -10.83154,-0.55849 -11.6843,-3.24531 z"
     id="path4141"
     inkscape:connector-curvature="0"
     transform="scale(0.8,0.8)" />
  <path
     style="fill:#ffffff;stroke:#000000;stroke-width:1.75582993;stroke-opacity:0.95977017"
     d="m 491.86023,277.92678 c -0.0989,-7.48422 -0.69152,-32.43784 -1.31687,-55.45247 -1.00592,-37.02084 -1.49123,-42.10355 -4.2097,-44.08932 -2.35349,-1.71915 -3.0727,-4.78747 -3.0727,-13.10873 0,-9.49298 0.58639,-11.40765 4.64596,-15.16994 6.54089,-6.0619 20.47989,-6.03386 27.39793,0.0551 4.28938,3.77533 4.82853,5.46301 4.82853,15.11446 0,7.80162 -0.76972,11.42743 -2.73025,12.861 -4.65355,3.40276 -5.96359,14.65127 -6.00701,51.57844 l -0.0419,35.62941 13.60769,-0.51281 13.60768,-0.51282 0.5237,-13.11748 c 0.5577,-13.96892 1.65473,-15.78274 9.57232,-15.82682 l 4.82853,-0.0269 0,-41.262 0,-41.26201 -7.02332,0 -7.02332,0 0,-14.04664 0,-14.04664 -4.82853,0.0419 c -8.29284,0.0719 -18.53815,3.11698 -20.14439,5.98718 -1.14887,2.05292 -4.41013,2.75007 -12.86467,2.75007 -15.46844,0 -18.34896,-2.89422 -18.34896,-18.43621 0,-15.541996 2.88052,-18.436214 18.34896,-18.436214 8.39012,0 11.71929,0.703399 12.84437,2.713811 1.15687,2.067203 5.96973,2.965873 20.19943,3.771693 l 18.6807,1.05787 0.51883,9.836 0.51882,9.83599 6.51233,0.54065 6.51234,0.54066 0.51098,13.50598 0.51099,13.50599 6.61588,0.54683 6.61589,0.54682 -0.47048,41.59309 -0.47048,41.59309 -6.58437,0.54495 -6.58436,0.54495 0,12.95674 0,12.95674 -6.58436,0.54495 -6.58436,0.54495 -0.51282,13.60768 -0.51281,13.60768 -30.65317,0 -30.65317,0 -0.17987,-13.60768 z"
     id="path4143"
     inkscape:connector-curvature="0"
     transform="scale(0.8,0.8)" />
  <path
     style="fill:#ffffff;stroke:#000000;stroke-width:1.75582993;stroke-opacity:0.95977017"
     d="m 603.5353,291.53446 c -0.613,-1.93141 -2.64156,-3.51165 -4.50789,-3.51165 -3.03217,0 -3.39334,-1.31405 -3.39334,-12.34591 0,-10.15559 0.54514,-12.54706 3.0727,-13.47962 1.68999,-0.62353 3.6532,-1.98145 4.36269,-3.01759 1.54454,-2.25567 1.80899,-124.17034 0.27799,-128.16006 -0.58617,-1.52754 -2.56148,-2.77735 -4.38958,-2.77735 -2.96573,0 -3.3238,-1.41864 -3.3238,-13.16872 0,-11.99817 0.31215,-13.16872 3.51166,-13.16872 1.95092,0 3.51166,-1.17056 3.51166,-2.63375 0,-3.827891 23.74767,-3.827891 25.21657,0 0.55587,1.44856 2.22065,2.63375 3.69952,2.63375 2.17179,0 2.68885,2.4929 2.68885,12.96394 0,11.13271 -0.45843,13.08381 -3.24538,13.81262 -1.96109,0.51284 -3.69817,3.11265 -4.38958,6.56967 -1.49079,7.45398 -1.49079,111.97152 0,119.4255 0.69141,3.45702 2.42849,6.05684 4.38958,6.56967 2.78695,0.72881 3.24538,2.67991 3.24538,13.81262 0,10.69144 -0.4905,12.96395 -2.79813,12.96395 -1.53897,0 -3.21137,1.58024 -3.71644,3.51165 -0.79604,3.04407 -2.39498,3.51166 -12.00811,3.51166 -9.54772,0 -11.24477,-0.48831 -12.20435,-3.51166 z"
     id="path4145"
     inkscape:connector-curvature="0"
     transform="scale(0.8,0.8)" />
  <path
     style="fill:#ffffff;stroke:#000000;stroke-width:1.75582993;stroke-opacity:0.95977017"
     d="m 677.28016,277.48783 -1.24341,-14.04664 -5.88574,0 -5.88573,0 -0.51588,-12.72977 -0.51588,-12.72977 -6.1454,-0.87791 -6.14541,-0.87792 -0.47073,-41.70096 -0.47074,-41.70096 5.98933,0 c 7.25245,0 8.12087,-1.79909 8.12087,-16.82399 l 0,-11.26929 5.973,0 5.97301,0 1.22271,-10.53498 1.22271,-10.53497 9.04571,-0.0153 c 15.65166,-0.0264 27.48192,-2.01472 27.48192,-4.618881 0,-1.771755 2.97103,-2.389173 11.49674,-2.389173 10.17698,0 11.991,0.533326 15.80247,4.645964 6.14637,6.63205 6.14637,20.94845 0,27.5805 -3.76229,4.05957 -5.67697,4.64596 -15.16995,4.64596 -8.0836,0 -11.40814,-0.74387 -12.98944,-2.90642 -1.38473,-1.89373 -5.58174,-3.19307 -12.04542,-3.72909 l -9.92019,-0.82265 -0.0193,6.80178 c -0.0106,3.74098 -0.50907,9.76475 -1.10765,13.38615 -1.00668,6.09038 -1.53215,6.58436 -7.004,6.58436 l -5.91567,0 0,41.26201 0,41.262 5.20572,0 c 6.79934,0 8.84092,4.02798 8.84092,17.44287 l 0,10.65041 13.21446,0 13.21446,0 -0.48469,-26.77641 -0.48469,-26.77641 -12.72214,-0.51572 c -10.44157,-0.42328 -13.51038,-1.24624 -17.11934,-4.59092 -3.77177,-3.49556 -4.39721,-5.60742 -4.39721,-14.84778 0,-8.68636 0.54189,-10.7726 2.79813,-10.7726 1.53897,0 3.20195,-1.54424 3.69552,-3.43165 1.58423,-6.05811 26.86712,-7.09349 26.86712,-1.10025 0,3.18861 7.8295,6.28773 15.88509,6.28773 l 6.9407,0 0,55.30864 0,55.30864 -30.54427,0 -30.54428,0 -1.24341,-14.04663 z"
     id="path4147"
     inkscape:connector-curvature="0"
     transform="scale(0.8,0.8)" />
  <path
     style="fill:#ffffff;stroke:#000000;stroke-width:1.75582993;stroke-opacity:0.95977017"
     d="m 816.86864,286.51204 c 0,-2.76233 -0.50246,-8.68825 -1.11658,-13.16873 -1.01203,-7.38355 -1.55651,-8.14629 -5.8152,-8.14629 -7.4856,0 -12.38901,-8.16171 -12.35202,-20.55991 0.043,-14.39362 4.10448,-18.06835 19.97023,-18.06835 8.70962,0 11.60438,0.60591 11.60438,2.42896 0,1.33593 1.58024,2.8422 3.51166,3.34728 3.06587,0.80174 3.51166,2.39498 3.51166,12.5507 0,8.72016 -0.65937,11.8854 -2.63375,12.64304 -1.44856,0.55587 -2.63374,2.00392 -2.63374,3.2179 0,2.64185 11.47815,4.44038 28.33834,4.44038 l 12.04574,0 0,-28.09328 0,-28.09328 -20.19204,0 -20.19204,0 0,-14.04664 0,-14.04664 7.02332,0 7.02332,0 0,-13.94065 0,-13.94064 6.58436,-0.54495 6.58436,-0.54495 0.51588,-12.72977 0.51588,-12.72977 -12.36773,0 c -10.02663,0 -13.03246,0.66473 -15.87939,3.51166 -2.77103,2.77103 -5.82615,3.50527 -14.4856,3.48133 -15.0468,-0.0416 -18.87517,-3.92519 -18.87517,-19.14742 0,-7.96388 0.68831,-11.0457 2.63374,-11.79223 1.44856,-0.55586 2.63375,-2.11131 2.63375,-3.456554 0,-1.873222 3.08326,-2.44589 13.16872,-2.44589 9.89325,0 13.16873,0.590364 13.16873,2.3735 0,2.863574 18.81766,4.623594 49.60219,4.639294 l 20.631,0.0105 0,11.41289 0,11.41289 -6.1454,0 -6.14541,0 -0.024,9.21811 c -0.0382,14.67418 -1.19254,17.11934 -8.08206,17.11934 l -5.94062,0 0,14.04664 0,14.04664 5.94062,0 c 6.96797,0 8.045,2.39837 8.08205,17.99726 l 0.024,10.09602 6.14541,0 6.1454,0 0,27.21536 0,27.21537 -6.1454,0 -6.14541,0 -0.024,10.09602 c -0.0462,19.43403 2.84184,17.99725 -36.17533,17.99725 l -34.0339,0 0,-5.02242 z"
     id="path4149"
     inkscape:connector-curvature="0"
     transform="scale(0.8,0.8)" />
  <path
     style="fill:#ffffff;stroke:#000000;stroke-width:1.75582993;stroke-opacity:0.95977017"
     d="m 934.14721,278.8047 -0.51588,-12.72977 -6.58437,-1.62654 c -6.52504,-1.61189 -6.58457,-1.70679 -6.60833,-10.53498 -0.0371,-13.77241 -1.26345,-16.5336 -7.61749,-17.15075 l -5.52726,-0.53684 -0.47074,-41.70096 -0.47073,-41.70096 5.9577,0 c 5.26796,0 6.08475,-0.63524 7.0551,-5.48697 0.60356,-3.01783 1.09739,-9.29112 1.09739,-13.94064 l 0,-8.45368 6.58436,-0.54495 6.58437,-0.54495 0.51281,-13.60768 0.51282,-13.607684 12.8498,0 c 7.06739,0 16.51564,0.502458 20.9961,1.116574 l 8.1463,1.116574 0,12.930066 0,12.93006 7.02332,0 7.02332,0 0,14.04664 0,14.04664 6.17718,0 6.17722,0 -0.4708,41.70096 -0.4707,41.70096 -5.70646,0.55021 -5.70644,0.5502 0,12.95149 0,12.95148 -6.58436,0.54495 -6.58437,0.54495 -0.51281,13.60768 -0.51282,13.60768 -20.91918,0 -20.91918,0 -0.51587,-12.72976 z m 41.49862,-20.19205 c -0.069,-2.17284 -0.26651,-26.86419 -0.43896,-54.86968 l -0.31354,-50.91907 -6.14541,0 c -5.59103,0 -6.1454,-0.45306 -6.1454,-5.02242 0,-2.76234 -0.50246,-8.68826 -1.11658,-13.16873 l -1.11657,-8.1463 -12.93006,0 -12.93007,0 0,54.32474 0,54.32473 6.58436,0.54495 6.58437,0.54495 0.51412,13.68019 0.51412,13.68019 13.53252,-0.51147 c 12.75513,-0.48208 13.52531,-0.7384 13.4071,-4.46208 z"
     id="path4151"
     inkscape:connector-curvature="0"
     transform="scale(0.8,0.8)" />
  <path
     style="fill:#ffffff;stroke:#000000;stroke-width:1.75582993;stroke-opacity:0.95977017"
     d="m 1038.1032,278.52008 0,-13.0144 -7.0233,-1.18658 -7.0233,-1.18658 0,-12.9084 0,-12.9084 -6.5844,-0.54495 -6.5844,-0.54495 -0.4704,-41.59309 -0.4705,-41.59309 6.6159,-0.54682 6.6159,-0.54683 0.5109,-13.50599 0.511,-13.50598 6.5124,-0.54066 6.5123,-0.54065 0.5128,-13.60768 0.5128,-13.607684 12.8498,0 c 7.0674,0 16.5157,0.502458 20.9961,1.116574 l 8.1463,1.116574 0,12.930066 0,12.93006 6.9495,0 6.9494,0 0.5129,13.60769 0.5128,13.60768 5.7379,0.55255 5.738,0.55256 -0.4705,41.58736 -0.4704,41.58736 -5.7065,0.55021 -5.7064,0.5502 0,12.95149 0,12.95148 -6.5844,0.54495 -6.5844,0.54495 -0.5128,13.60768 -0.5128,13.60768 -20.9961,0 -20.9961,0 0,-13.01438 z m 41.5391,-46.9653 c -0.6353,-17.53753 -1.155,-42.42642 -1.155,-55.30865 l 0,-23.42223 -6.1454,0 c -6.0869,0 -6.1454,-0.0732 -6.1454,-7.68175 0,-4.22497 -0.4938,-10.15089 -1.0974,-13.16873 l -1.0974,-5.48697 -12.9492,0 -12.9493,0 0,54.32474 0,54.32473 6.5844,0.54495 6.5843,0.54495 0.4808,11.4129 c 0.2644,6.27709 0.8322,12.40055 1.2617,13.60768 0.533,1.49782 5.0683,2.19479 14.282,2.19479 l 13.5009,0 -1.155,-31.88641 z"
     id="path4153"
     inkscape:connector-curvature="0"
     transform="scale(0.8,0.8)" />
  <path
     style="fill:#ffffff;stroke:#000000;stroke-width:1.75582993;stroke-opacity:0.95977017"
     d="m 1141.6972,278.52008 0,-13.0144 -7.0234,-1.18658 -7.0233,-1.18658 0,-12.9084 0,-12.9084 -6.5843,-0.54495 -6.5844,-0.54495 -0.4705,-41.59309 -0.4705,-41.59309 6.6159,-0.54682 6.6159,-0.54683 0.5128,-13.60768 0.5128,-13.60769 6.9495,0 6.9495,0 0,-14.04664 0,-14.046634 12.9236,0 c 7.108,0 16.5895,0.502458 21.07,1.116574 l 8.1463,1.116574 0,12.930066 0,12.93006 6.9494,0 6.9495,0 0.5128,13.60769 0.5128,13.60768 6.5844,0.54495 6.5844,0.54495 0,40.96815 c 0,44.44735 0.3064,43.0997 -9.8007,43.0997 -4.1103,0 -4.246,0.41751 -4.246,13.06273 l 0,13.06273 -6.5843,0.54495 -6.5844,0.54495 -0.5128,13.60768 -0.5128,13.60768 -20.9961,0 -20.9961,0 0,-13.01438 z m 42.1345,-40.09947 c 0,-13.76132 -0.5224,-38.65021 -1.1543,-55.30864 l -1.1489,-30.28807 -5.7921,0 -5.7921,0 -0.5159,-12.66973 c -0.5119,-12.57226 -0.5588,-12.682 -6.0972,-14.26476 -3.0698,-0.87727 -9.1932,-1.0534 -13.6077,-0.39141 l -8.0263,1.20362 0,54.21716 0,54.21714 6.5843,0.54495 c 6.1501,0.50901 6.6138,0.95032 7.0297,6.69036 0.245,3.37997 0.886,9.50343 1.4245,13.60768 l 0.9791,7.46228 13.0611,0 13.0612,0 -0.01,-25.02058 z"
     id="path4155"
     inkscape:connector-curvature="0"
     transform="scale(0.8,0.8)" />
</svg>
